<svg xmlns="http://www.w3.org/2000/svg" width="2240" height="2240">
  <path d="m1003.125 131.688 3.584.01c13.316.164 25.547 2.483 38.291 6.302l2.54.68c6.276 1.73 11.74 4.238 17.46 7.32l4.21 2.16c10.009 5.234 17.797 10.872 25.79 18.84a283 283 0 0 0 4.25 3.688c6.49 5.667 12.04 11.212 16.523 18.625L1117 191h2c1.183-1.54 2.294-3.136 3.375-4.75 7.614-10.712 17.325-19.179 27.625-27.25l2.45-2.031c2.701-2.086 5.462-3.776 8.425-5.469l3.203-1.832c.964-.55 1.929-1.1 2.922-1.668l1.984-1.2c18.667-11.243 41.894-14.976 63.329-14.988l3.513-.037c7.29-.012 14.065.615 21.174 2.225l2.113.475c1.884.443 3.76.921 5.637 1.4l2.032.517q3.11.797 6.218 1.608l2.02.525A832 832 0 0 1 1288 142l2.342.622c6.104 1.7 11.429 4.079 16.97 7.128l2.484 1.339q2.463 1.328 4.92 2.668a566 566 0 0 0 6.12 3.278c8.394 4.451 16.125 8.73 23.11 15.219 2.117 1.872 2.117 1.872 4.94 3.644 3.218 2.172 5.956 4.528 8.802 7.165l1.55 1.436c5.394 5.028 10.585 10.25 15.762 15.501l2.441 2.434c22.238 22.305 38.865 47.971 50.989 76.988 2.071 4.72 4.401 9.29 6.74 13.88a140 140 0 0 1 5.97 13.542c.847 2.124 1.812 4.124 2.86 6.156 3.582 6.994 6.117 14.215 8.281 21.754.933 2.916 2.328 5.524 3.719 8.246a309 309 0 0 1 2 7l1 2.438c1.096 2.807 1.799 5.592 2.496 8.519.465 1.884 1.012 3.746 1.566 5.606.938 3.437.938 3.437 1.438 7.187.287 3.388.287 3.388 2.5 6.25.381 2.407.684 4.826.938 7.25.62 5.93.62 5.93 2.624 11.5 1.74 3.932 1.928 7.34 2.13 11.602.189 2.656.189 2.656 1.267 4.996 1.028 2.62 1.562 4.958 2.006 7.73l.48 2.98.493 3.192.522 3.34c2.874 18.73 4.807 37.547 6.54 56.41l.226 2.42c2.534 27.36 3.075 54.66 3.085 82.116q.002 3.96.012 7.921.01 6.32-.015 12.64-.008 2.347-.005 4.695c.001 7.783-.171 15.285-1.84 22.93-.76 3.734-.884 7.48-1.025 11.278q-.108 2.325-.22 4.648l-.105 2.242c-.235 4.381-.661 8.746-1.113 13.11 4.154-.598 7.918-1.547 11.875-2.937 3.523-1.211 6.998-2.339 10.625-3.188 3.319-.69 3.319-.69 5.453-1.871 2.74-1.344 5.456-1.783 8.438-2.344 2.796-.65 2.796-.65 6.093-2.023 5.692-2.181 11.593-3.488 17.516-4.887 1.26-.3 2.519-.602 3.817-.912 12.183-2.894 24.417-5.555 36.656-8.201a1626 1626 0 0 0 22.454-5.04 473 473 0 0 1 14.556-3.1c4.178-.825 8.348-1.69 12.517-2.56l2.559-.525 2.441-.51 2.188-.453c1.895-.4 1.895-.4 3.812-1.449a96 96 0 0 1 4.43-.633l2.783-.344 3.017-.363q3.156-.39 6.311-.783 4.98-.612 9.96-1.218 4.803-.587 9.604-1.186l2.987-.357c5.16-.645 9.907-1.65 14.908-3.116 2.933-.319 2.933-.319 5.867-.414l3.383-.118 3.625-.093 3.818-.113c20.49-.545 41.043-.782 61.506.52 2.396.137 4.796.209 7.196.187C1786 605 1786 605 1788 606c2.795.07 5.576-.003 8.371-.062C1799 606 1799 606 1802 607c1.64.202 3.284.364 4.93.5l2.91.25 3.035.25q2.965.245 5.93.5l2.655.219c2.54.281 2.54.281 5.162.812 2.505.574 2.505.574 5.628.469h2.75l1 1c1.767.256 3.54.478 5.313.688 6.744.99 13.025 2.818 19.521 4.851 7.879 2.44 15.838 4.446 23.857 6.368A181 181 0 0 1 1902 628l2.96.973c4.242 1.433 8.456 2.94 12.665 4.465l2.563.908 2.476.9 2.233.803c2.314 1.047 4.09 2.413 6.103 3.951 2.062.788 4.149 1.51 6.25 2.188 17.103 5.942 35.372 15.03 48.434 27.671 2.451 2.266 5.01 4.117 7.754 6.016 8.833 6.288 15.997 14.104 22.593 22.66 2.085 2.61 4.311 5.026 6.594 7.465 4.234 4.635 7.341 9.53 10.375 15q1.497 2.501 3 5c3.116 5.418 5.996 10.926 8.742 16.54 1.2 2.348 2.521 4.577 3.883 6.835 2.411 4.297 3.554 8.534 4.625 13.324.822 3.617 1.812 7.167 2.813 10.739 5.53 20.699 5.818 43.141 1 64.062l-.514 2.375c-.795 3.532-1.522 6.084-3.549 9.125a59 59 0 0 0-.832 4.102c-1.096 5.266-3.278 9.585-5.856 14.273l-1.358 2.515c-5.037 9.235-10.161 17.684-17.45 25.333-1.72 1.643-1.72 1.643-1.504 3.777 3.903 2.021 7.622 3.923 11.813 5.25 4.68 1.688 8.321 4.59 12.257 7.578 2.943 2.181 5.965 4.144 9.055 6.11 5.603 3.693 10.6 7.86 14.875 13.062v2l3 1c3.647 3.285 6.349 6.76 9 10.875 2.18 3.353 4.357 6.67 6.75 9.875 2.096 3.028 3.707 5.972 5.277 9.285.933 1.885 1.983 3.621 3.098 5.403 1.937 3.3 2.671 6.495 3.285 10.253.527 2.446.527 2.446 2.016 4.97 2.032 4.311 2.832 8.549 3.699 13.214l.512 2.605c1.542 8.001 2.517 15.802 2.566 23.946l.021 2.367q.025 3.76.026 7.52l.003 2.589c-.01 12.277-.384 24.108-3.253 36.098l-.47 2.078c-1.064 4.674-2.27 9.296-3.53 13.922l-.934 3.648c-1.878 7.064-4.313 13.498-7.503 20.07-1.611 3.384-3.026 6.812-4.438 10.282-2.541 5.985-5.62 11.367-9.117 16.84-1.95 3.07-3.77 6.187-5.57 9.348-3.203 5.501-6.656 10.693-10.438 15.812l-1.4 1.896c-6.32 8.521-12.797 16.718-20.084 24.432-3.093 3.285-6.03 6.693-8.957 10.125C2036 1203 2036 1203 2034 1203v2c-1.61 1.48-3.291 2.885-5 4.25l-3.062 2.45A425 425 0 0 1 2015 1220l-2.867 2.145-3.008 2.23-2.805 2.086C2004 1228 2004 1228 2002 1228v2c-1.398 1.227-1.398 1.227-3.375 2.625-3.173 2.3-6.265 4.66-9.312 7.125a3786 3786 0 0 1-6.882 5.503c-5.973 4.749-11.836 9.221-18.646 12.731-1.978 1.022-1.978 1.022-3.91 3.141-2.097 2.097-4.144 2.89-6.875 3.96-4.697 2.147-8.987 5.327-13.031 8.517-1.944 1.38-3.522 2.064-5.782 2.773-2.947 1.033-5.16 2.21-7.624 4.125-3.26 2.49-6.405 3.524-10.305 4.688-3.083 1.109-5.578 2.818-8.293 4.624-2.547 1.54-5.166 2.414-7.969 3.376-2.18.887-3.975 2.01-5.934 3.312-3.463 2.268-6.772 3.494-10.714 4.691-2.565.884-4.875 2.005-7.285 3.246-6.914 3.548-13.667 6.306-21.25 8.063-4.192.985-7.328 2.18-10.934 4.465-6.143 3.384-13.399 4.91-20.129 6.723-6.767 1.872-13.211 4.389-19.75 6.937-7.781 3.012-14.793 5.26-23.117 6.063-4.499.487-8.598 1.916-12.883 3.312-7.257 2.175-14.455 4.191-21.906 5.57-2.272.423-2.272.423-5.094 1.43-2.71.903-5.263 1.472-8.062 2-3.545.675-6.598 1.63-9.938 3-2.232.526-4.469.994-6.719 1.438-2.332.51-2.332.51-4.617 1.562-4.352 1.634-8.89 1.893-13.484 2.438-3.324.368-3.324.368-6.18 2.562 1.331 2.971 2.77 4.995 5.117 7.242l1.84 1.793q1.906 1.83 3.813 3.656c2.779 2.709 5.142 5.177 7.304 8.422 2.208 3.31 4.867 5.648 7.863 8.2 7.267 6.443 12.868 13.862 18.58 21.675 2.108 2.86 4.295 5.65 6.483 8.45 9.901 12.865 19.22 26.182 28.533 39.477a644 644 0 0 0 3.135 4.414c4.352 6.119 8.296 12.414 12.145 18.859 3.977 6.61 7.998 13.145 12.374 19.5 4.414 6.439 8.148 13.184 11.847 20.053 2.527 4.685 5.145 9.223 8.028 13.697 5.002 7.945 8.784 16.489 12.722 24.995 1.644 3.472 3.39 6.89 5.151 10.303 1.047 2.226 1.808 4.407 2.503 6.764 1.094 3.587 2.66 6.409 4.687 9.563 2.815 4.453 3.681 7.698 3.875 12.937h2c17.504 48.557 17.504 48.557 20.352 66.207.567 3.745.567 3.745 1.609 7.117.844 2.988 1.454 5.826 1.98 8.875.858 4.91 1.986 9.705 3.217 14.533 5.072 20.038 7.106 38.885 7.155 59.518l.01 2.7c.027 12.15-.69 24.01-2.323 36.05l-.458 3.474c-1.654 11.959-3.758 23.555-7.452 35.057a76 76 0 0 0-2.152 8.469c-1.643 7.88-5.902 14.968-9.5 22.094a165 165 0 0 0-3.438 7.406c-7.512 17.225-7.512 17.225-12.937 23.875-2.175 2.619-2.175 2.619-3.829 5.852-2.252 3.993-5.026 7.34-8.046 10.773l-1.617 1.855c-8.24 9.399-16.393 16.644-27.512 22.504-2.814 1.51-5.564 3.093-8.316 4.71-8.906 5.212-17.953 8.765-27.743 11.931q-3.333 1.124-6.664 2.254L1760 1956l-3.156 1.02c-4.571 1.166-9.03 1.674-13.719 2.105l-2.566.262c-7.617.735-15.062.86-22.684.113-3.351-.308-6.635-.556-10-.5-2.875 0-2.875 0-4.875-1-2.816-.49-5.64-.895-8.469-1.305-4.616-.909-9.047-2.283-13.531-3.695l-.06 1.953c-.096 2.974-.206 5.948-.315 8.922-.03 1.013-.062 2.026-.094 3.07-.221 5.761-.796 11.2-2.04 16.83-.422 1.913-.751 3.846-1.061 5.78-3.875 23.192-15.807 42.495-30.43 60.445l-1.914 2.418c-8.777 10.55-20.652 18.206-32.086 25.582l-3 2.094c-2.832 1.8-5.33 2.916-8.5 3.968-4.019 1.387-7.711 3-11.5 4.938l-6 2-2.75 1.438c-4.283 2.059-8.671 3.323-13.25 4.562l-3.379.926c-29.664 7.301-60.393 8.639-90.371 2.637l-3.484-.684c-4.66-1.088-9.196-2.468-13.766-3.879q-2.43-.735-4.86-1.465c-.798-.24-1.597-.48-2.42-.729l-2.47-.744-2.627-.792c-3.86-1.16-7.719-2.31-11.607-3.372A148 148 0 0 1 1411 2081l-2.898-1.3a766 766 0 0 1-14.926-7.024l-7.994-3.847c-6.977-3.327-14.046-6.375-21.23-9.229l-2.241-.909-1.96-.775c-1.978-1.035-3.205-2.321-4.751-3.916l-2.187-.875c-6.29-2.516-11.59-6.673-16.922-10.777-2.057-1.54-2.057-1.54-5.266-3.035C1328 2038 1328 2038 1326 2035c-1.724-1.008-3.451-2.013-5.207-2.965-2.47-1.425-4.569-3.256-6.793-5.035a877 877 0 0 0-5.262-2.95c-2.165-1.308-4.034-2.905-5.941-4.562-5.105-4.228-10.583-8.113-16.172-11.676-2.903-2.004-5.132-4.319-7.625-6.812a213 213 0 0 0-4-2.937c-2.581-1.88-4.66-3.671-6.625-6.188-2.213-2.966-2.213-2.966-5.187-4.723-3.291-2.222-5.81-4.611-8.563-7.465-3.072-3.155-6.15-6.207-9.562-9-7.776-6.642-14.114-15.15-20.376-23.187-2.694-3.42-5.456-6.096-8.835-8.812-3.298-3.006-5.959-6.554-8.735-10.036a158 158 0 0 0-5.054-6.027c-8.663-10.026-16.354-20.979-24.274-31.586-4.218-5.64-8.47-11.25-12.773-16.825a1996 1996 0 0 1-7.258-9.464l-1.685-2.21-3.39-4.448a389 389 0 0 0-8.87-11.217c-4.615-5.712-8.57-11.855-12.582-17.996-1.933-2.95-3.896-5.883-5.856-8.816L1122 1815c-3.03.297-4.548.47-6.562 2.836l-1.438 2.539c-7.235 12.09-15.12 23.73-24.332 34.398-3.483 4.118-6.616 8.498-9.793 12.852-4.162 5.705-8.365 11.33-12.828 16.805-3.252 4.083-6.352 8.279-9.474 12.462a1193 1193 0 0 1-12.339 16.217 711 711 0 0 0-4.093 5.344c-3.775 4.952-7.805 9.594-12.004 14.192a228 228 0 0 0-5.387 6.168c-2.446 2.88-5.077 5.514-7.75 8.187a218 218 0 0 0-11.937 14.063c-8.728 10.786-19.566 20.512-30.625 28.874-2.595 2.058-2.595 2.058-4.813 5.063-2.61 2.984-4.537 4.177-7.95 5.945-2.245 1.414-3.575 3.387-5.163 5.477-2.571 2.684-5.782 4.3-9.012 6.086-2.722 1.625-5.062 3.467-7.5 5.492-5.488 4.517-10.77 8.58-17 12q-2.506 1.993-5 4l-3 1-2.25 2.313c-2.49 2.432-4.81 4.01-7.855 5.656-4.427 2.41-8.673 5.036-12.582 8.218-2.385 1.87-4.505 2.733-7.313 3.813l-1.744 1.376c-2.786 2.005-5.626 3.212-8.787 4.55l-1.915.818q-3.024 1.29-6.054 2.568c-8.413 3.562-16.707 7.202-24.851 11.355-3.598 1.81-7.26 3.436-10.961 5.02l-1.971.854a982 982 0 0 1-3.853 1.657 303 303 0 0 0-3.718 1.63c-3.416 1.511-6.69 2.674-10.333 3.485-5.649 1.348-11.194 2.947-16.75 4.624l-2.628.792a680 680 0 0 0-11.189 3.478c-5.971 1.919-11.786 3.43-18 4.323q-3.183.46-6.358.978c-8.794 1.384-17.43 1.928-26.326 1.93l-2.118.007c-20.389 0-41.24-3.004-60.631-9.383l-2.981-.964C660 2093 660 2093 657.442 2091.46c-2.462-1.473-4.552-2.187-7.317-2.898-3.173-.896-5.877-1.84-8.687-3.563-2.837-1.65-4.985-2.567-8.063-3.5-3.897-1.231-6.273-2.776-9.375-5.5a388 388 0 0 0-4.687-3.25c-5.304-3.68-10.311-7.673-15.313-11.75l-2.594-2.023c-21.205-17.419-35.149-46.44-39.406-72.977l-1.031-4.672c-1.176-5.801-1.414-11.549-1.594-17.453l-.117-3.187A1374 1374 0 0 1 559 1953l-2.527.84c-6.571 2.115-12.602 3.597-19.473 4.16l-2 1c-2.146 0-4.292-.004-6.437-.031-2.556.03-5.024.245-7.563.531-12.322 1.323-24.995.575-37-2.5q-2.25-.473-4.5-.937c-8.192-1.843-15.808-4.913-23.437-8.376l-2.675-1.21c-6.074-2.789-11.77-5.856-17.388-9.477l-3.059-1.758c-25.397-14.778-40.374-39.471-52.941-65.242a2309 2309 0 0 0-2.187-4.312 131 131 0 0 1-3.973-8.696 110 110 0 0 0-1.961-4.36c-4.129-9.08-6.187-18.518-8.336-28.21-.702-3.13-1.47-6.243-2.23-9.36-1.516-6.64-2.455-13.309-3.313-20.062l-.518-3.922c-1.464-11.628-1.844-23.116-1.795-34.828l.007-2.795c.078-20.75 2.833-39.528 7.888-59.646 1.208-4.85 2.236-9.7 3.106-14.621a192 192 0 0 1 3.566-16.149c.621-2.531 1.121-5.035 1.596-7.595 1.062-5.334 2.598-10.422 4.302-15.58l.912-2.8q.948-2.904 1.904-5.805c.97-2.947 1.93-5.897 2.89-8.847q.927-2.837 1.857-5.674l.862-2.645c1.59-4.816 3.35-9.464 5.423-14.093h2l.125-3.375c.58-4.831 2.808-8.096 5.398-12.129 1.366-2.308 2.21-4.316 2.977-6.871 1.405-4.652 3.492-8.775 5.719-13.086a218 218 0 0 0 3.75-7.828 250 250 0 0 1 14.658-27.505c2.987-4.861 5.778-9.752 8.373-14.831 3.269-6.324 7.082-12.172 11.088-18.051 4.302-6.332 8.337-12.806 12.35-19.324 5.944-9.609 12.28-18.797 19.003-27.872 2.641-3.606 5.187-7.277 7.747-10.94 4.648-6.622 9.474-13.058 14.457-19.434a492 492 0 0 0 4.48-5.914c16.477-21.947 16.477-21.947 26.34-29.363 1.732-1.552 1.732-1.552 3.281-4.2 3.2-4.654 7.208-8.285 11.297-12.154 3.26-3.16 5.712-5.613 6.957-10.123l-3.086-.297c-7.99-.824-15.82-1.954-23.664-3.703l-2.271-.503c-2.962-.685-5.796-1.423-8.62-2.56-2.78-1.104-5.4-1.514-8.359-1.937-3.99-.57-7.278-1.486-11-3-2.589-.537-5.18-.936-7.793-1.34-3.565-.734-6.97-1.76-10.447-2.828a316 316 0 0 0-8.502-2.41c-10.956-2.98-21.75-6.148-32.43-10.007-4.593-1.655-9.173-3.135-13.89-4.415-5.82-1.597-11.463-3.548-17.125-5.625l-2.507-.914-2.349-.875-2.094-.78C394 1315 394 1315 391 1313c-1.53-.44-3.074-.83-4.625-1.187-8.105-2.108-15.695-5.523-23.375-8.813l-1.888-.797a177 177 0 0 1-10.362-4.765l-2.516-1.254C346 1295 346 1295 343 1293a97 97 0 0 0-4.25-1.312c-3.202-1.018-5.6-2.127-8.25-4.188-3.25-2.527-6.391-3.523-10.305-4.684-2.93-1.09-5.064-2.79-7.511-4.695-1.873-1.372-1.873-1.372-5.247-2.121-3.47-1.01-5.21-2.318-7.851-4.715-2.281-1.848-4.801-2.941-7.445-4.187-3.102-1.59-5.912-3.548-8.77-5.535-2.47-1.671-2.47-1.671-5.59-3.348-4.49-2.54-8.582-5.578-12.719-8.652l-2.51-1.857c-6.125-4.563-12.083-9.302-17.979-14.156-4.757-3.913-9.626-7.638-14.573-11.308-17.013-12.715-32.976-26.343-46-43.242q-1.967-2.408-3.937-4.812c-8.324-10.45-15.243-21.566-21.878-33.132a573 573 0 0 0-3.35-5.724c-8.96-15.233-17.387-32.065-20.339-49.652-.694-3.747-1.628-7.424-2.559-11.118l-.53-2.119c-.72-2.852-1.477-5.652-2.407-8.443-1.304-10.226-1.218-20.603-1.24-30.894-.01-2.733-.041-5.466-.073-8.2-.054-9.153.295-17.168 3.313-25.906.37-1.89.713-3.784 1-5.687.819-4.74 2.158-8.888 4-13.313l.836-2.258C141.025 966.608 146.93 956.534 154 947l1.598-2.219c2.878-3.945 5.901-7.362 9.402-10.781l1.926-2.281c4.67-5.509 9.197-9.411 15.41-13.082 2.47-1.518 4.577-3.146 6.789-5.012 7.706-6.19 17.07-10.23 25.875-14.625-1.502-3.358-3.464-5.93-5.812-8.75-9.024-11.178-15.8-24.278-20.391-37.89-.704-2.086-1.51-4.081-2.36-6.11-8.194-21.807-8.003-49.844-2.022-72.066a241 241 0 0 0 1.612-6.465c2.699-10.695 7.383-19.948 12.758-29.534a261 261 0 0 0 3.278-6.1c4.43-8.46 4.43-8.46 6.945-11.562 2.097-2.469 2.097-2.469 3.414-5.472 1.804-3.487 4.123-6.074 6.828-8.864 3.336-3.527 6.519-7.047 9.438-10.937 3.392-4.494 7.263-8.351 11.312-12.25l1.887-1.965c2.432-2.342 5.015-4.288 7.738-6.285 3.948-2.92 7.823-5.892 11.625-9 7.244-5.811 14.975-9.976 23.29-14.05a564 564 0 0 0 8.71-4.388c4.105-2.062 8.298-3.756 12.582-5.41 2.29-.883 2.29-.883 4.668-2.465 2.428-1.396 4.443-2.06 7.125-2.812 3.746-1.055 7.12-2.372 10.625-4.062 6.38-2.993 12.952-4.772 19.75-6.563q1.956-.532 3.91-1.066c10.35-2.817 10.35-2.817 15.465-3.871 4.42-.94 8.73-2.222 13.063-3.5l2.27-.667c3.039-.9 6.056-1.814 9.05-2.853 5.923-2.038 11.575-2.49 17.799-2.665 3.67-.127 5.307-.287 8.443-2.378 2.2-.16 2.2-.16 4.688-.062 3.67.134 7.103-.16 10.74-.65 6.74-.754 13.544-1.013 20.314-1.413q3.087-.185 6.172-.375l3.686-.219c3.358-.228 3.358-.228 6.475-.808 2.998-.485 5.77-.571 8.804-.535l3.29.023 3.394.039q3.345.039 6.69.063l2.98.035c2.7-.096 5.128-.557 7.767-1.098 1.67.316 3.336.652 5 1 2.696.044 5.368.05 8.063 0 7.405-.135 7.405-.135 9.818.477 2.592.64 5.075.792 7.74.953l3.338.222q3.425.22 6.852.422c6.877.47 13.255 1.548 19.94 3.204 5.468 1.215 10.993 1.691 16.562 2.222 24.923 2.575 24.923 2.575 32.23 5.527 2.803 1.11 5.414 1.543 8.394 1.973 4.239.612 8.012 1.625 12.063 3q3.24.764 6.5 1.438l3.766.789L647 626c9.97 2.08 19.89 4.35 29.81 6.66a898 898 0 0 0 16.702 3.735l3.121.662q2.901.612 5.806 1.206c5.437 1.146 10.391 2.705 15.561 4.737 1.408.389 2.823.754 4.25 1.063 3.032.758 5.027 1.576 7.75 2.937 1.903.46 3.807.917 5.715 1.36 3.43.961 6.637 2.395 9.89 3.835 2.602.875 4.669.95 7.395.805 1.267-3.664.752-6.498.101-10.277-1.191-7.768-1.549-15.439-1.718-23.285l-.114-4.536c-.423-18.025-.42-36.055-.4-54.084q.008-7.302-.003-14.604c-.067-66.886-.067-66.886 3.634-81.93 1.02-4.66 1.416-9.423 1.938-14.159.92-7.978 1.897-15.938 3.125-23.875l.347-2.324c.622-3.908 1.614-7.274 3.09-10.926q.311-2.68.438-5.375c.358-4.805 1.62-8.198 3.562-12.625.376-1.95.705-3.91 1-5.875.673-4.453 1.626-8.482 3.148-12.71 1.047-2.967 1.945-5.966 2.852-8.978 1.1-3.616 2.236-7.172 3.625-10.687 1.318-3.595 2.15-7.018 2.848-10.77C781 344 781 344 783 341c.388-1.487.718-2.99 1-4.5.607-3.253 1.098-4.647 3-7.5.59-2.301 1.008-4.606 1.438-6.941C789 320 789 320 791 318c.756-1.857.756-1.857 1.375-4 1.62-5.11 3.587-10.045 5.625-15h2l-.25-2.75c.311-4.05 1.417-4.504 4.25-7.25 1.402-2.143 1.402-2.143 2.625-4.562l1.566-2.954q1.428-2.746 2.848-5.498c4.991-9.672 10.145-19.218 15.649-28.611l1.582-2.726c3.503-5.917 7.4-11.313 11.73-16.649l2.11-2.672 1.64-2.078c1.881-2.403 3.503-4.678 5.063-7.312L850 214h2l.738-2.2c1.417-3.144 3.093-5.102 5.45-7.613l2.453-2.644L863 199a638 638 0 0 0 3.438-4c6.557-7.499 13.458-14.213 21.562-20q2.351-1.802 4.688-3.625l2.3-1.785c1.493-1.18 2.95-2.405 4.387-3.653 4.26-3.144 8.947-5.47 13.625-7.937l4.215-2.246c4.255-2.265 8.51-4.528 12.785-6.754l2.12-1.106c3.613-1.852 7.071-3.441 11.005-4.519 2.682-.755 5.303-1.524 7.938-2.437 3.011-.962 6.034-1.647 9.125-2.305 4.878-1.098 9.713-2.381 14.554-3.633 9.532-2.298 18.565-3.36 28.383-3.312M979 219a117 117 0 0 1-6.531 1.277c-3.732 1.093-7.04 2.911-10.469 4.723l-1.981 1.04c-8.666 4.615-16.603 9.466-24.019 15.96l-2.137 1.773C925.52 250.798 919.288 259.143 913 268l-1.512 2.082c-1.771 2.442-3.463 4.876-4.988 7.48-1.5 2.438-1.5 2.438-4 5.375-2.409 2.951-3.834 5.662-5.5 9.063a132 132 0 0 1-2.5 3.5c-2.222 3.031-3.899 6.089-5.5 9.5-2.47 5.125-5.135 10.111-7.937 15.063l-1.965 3.472c-1.41 2.415-2.949 4.641-4.63 6.875-2.72 3.74-4.375 7.67-6.03 11.965l-1.81 4.543-.854 2.162c-.9 2.234-1.883 4.423-2.899 6.608-4.332 9.658-7.398 19.703-10.088 29.92-.95 3.574-1.99 7.025-3.342 10.47-1.433 3.713-2.253 7.37-2.945 11.297l-.367 2.045a893 893 0 0 0-1.918 11.338l-.395 2.397a814 814 0 0 0-.73 4.553c-.539 3.347-1.158 6.54-2.055 9.815-1.733 6.729-2.28 13.709-3.035 20.602l-.263 2.385c-4.55 41.788-4.756 83.997-4.912 125.99q-.013 3.014-.034 6.028c-.066 10.278.177 20.176 1.743 30.35.584 3.917.772 7.728.904 11.684.287 6.56 1.348 12.631 2.875 19.032.718 3.56.998 6.968 1.187 10.593.293 5.365 1.197 10.055 2.75 15.184.748 2.622 1.244 5.19 1.688 7.879.976 5.736 2.493 11.284 4.062 16.879a136 136 0 0 1 1.89 8.351c1.392 7.143 3.14 14.202 4.86 21.27l.534 2.198c5.324 26.68 5.324 26.68 14.7 51.892 1.516 3.224 2.21 6.644 3.016 10.097 1.053 4.488 2.143 8.827 4 13.063-3.905-1.425-7.248-3.267-10.75-5.5l-2.922-1.844C861 802 861 802 860 800h-6l-.187-1.82c-1.164-3.122-2.863-3.605-5.813-5.055-3.563-1.771-6.89-3.678-10.18-5.906-5.184-3.51-10.544-6.682-15.945-9.844l-2.879-1.695q-2.754-1.62-5.517-3.228a253 253 0 0 1-4.576-2.74C805.542 767.676 804.056 767 800 767v-2l-2.387-1.102C780.5 756 780.5 756 777.246 754.496q-3.227-1.488-6.46-2.96c-5.09-2.327-10.137-4.696-15.12-7.245-5.434-2.778-10.777-5.164-16.553-7.123-4.156-1.56-8.144-3.439-12.176-5.293-5.528-2.522-10.606-4.57-16.656-5.46-5.42-.985-10.594-3.327-15.683-5.388-16.203-6.322-33.873-8.953-50.846-12.484-13.168-2.742-26.245-5.747-39.31-8.95-8.974-2.18-17.921-3.917-27.09-5.066C574 694 574 694 570.449 693.04c-5.978-1.553-12.131-1.983-18.261-2.601q-3.636-.373-7.27-.754l-3.226-.327C539 689 539 689 536 688c-6.944-.98-13.859-1.078-20.86-.937C512 687 512 687 508.57 686.5c-3.711-.52-7.2-.563-10.945-.5-4.229.037-8.31.02-12.5-.562-2.868-.392-5.35-.382-8.215.007-5.195.631-10.37.813-15.598.992-8.572.34-16.847 1.14-25.312 2.563l-7 1q-3.065.489-6.125 1l-3.008.5-2.867.5-2.383.414c-3.519.788-6.933 1.869-10.367 2.961l-2.17.681a318 318 0 0 0-10.705 3.569c-4.935 1.686-10.03 2.624-15.14 3.629-2.933.676-5.468 1.59-8.235 2.746q-2.43.712-4.875 1.375c-3.196.931-5.918 1.94-8.75 3.688-3.103 1.78-5.606 2.472-9.039 3.283-4.526 1.267-8.784 3.219-13.086 5.091l-2.824 1.198c-4.204 1.812-7.8 3.549-11.426 6.365a254 254 0 0 1-5.125 2.625c-5.222 2.799-9.31 6.155-13.598 10.219-1.929 1.826-3.894 3.496-5.964 5.156-3.353 2.85-5.922 6.119-8.547 9.637-1.78 2.382-3.643 4.679-5.516 6.988-2.818 3.614-4.542 7.106-6.25 11.375a145 145 0 0 1-2.437 3.75c-5.972 9.407-7.4 19.332-8.563 30.25l-.375 2.676c-.568 4.11-.663 7.775.004 11.91.297 1.934.517 3.88.71 5.828.921 8.608 2.777 15.8 6.661 23.586l1.097 2.206c4.694 9.37 9.488 18.47 15.903 26.794q1.24 1.653 2.477 3.309 1.322 1.752 2.648 3.504l1.236 1.636c2.656 3.45 5.535 6.505 8.639 9.551l1.688 2.313L304 902h2l.625 1.637c1.916 3.293 4.579 5.642 7.375 8.176l1.75 1.598c7.747 7.782 7.747 7.782 17.25 11.589l-1 2c-2.52.492-2.52.492-5.812.875-5.674.792-10.755 2.134-16.141 4.05-3.241 1.143-6.506 2.148-9.797 3.138-8.23 2.528-15.589 5.544-23.258 9.484-2.566 1.246-5.051 2.216-7.742 3.14-7.182 2.755-13.296 7.58-19.493 12.049a285 285 0 0 1-4.316 3.034c-4.212 2.98-7.51 6.324-10.8 10.3C233 975 233 975 231.113 976.738c-2.926 3.132-4.976 6.66-7.175 10.324q-1.294 2.147-2.598 4.286l-1.145 1.906C219 995 219 995 217.41 996.584c-1.905 1.914-2.282 3.7-2.971 6.291-.707 2.61-1.42 5.082-2.454 7.582-3.555 9.184-3.116 19.189-2.734 28.856l.116 3.071c.304 6.071 1.08 11.742 2.634 17.616l.534 2.081c2.582 9.775 5.842 18.896 10.466 27.919l1.398 2.754c7.076 13.427 15.473 25.004 25.602 36.246l1.43 1.6c10.395 11.636 21.274 22.691 34.097 31.646 3.59 2.546 6.956 5.317 10.317 8.156 3.44 2.876 7.033 5.522 10.656 8.16.638.47 1.276.938 1.934 1.42 2.872 2.1 5.754 4.143 8.722 6.108 2.844 1.91 2.844 1.91 5.211 3.855 3.404 2.656 7.026 4.77 10.758 6.93l2.279 1.33a492 492 0 0 0 15.385 8.56c2.211 1.235 2.211 1.235 5.274 3.36 3.35 2.139 6.724 3.459 10.425 4.875 2.945 1.173 5.724 2.565 8.543 4.008 10.256 5.168 21.148 9.253 31.914 13.226 2.694 1.004 5.374 2.043 8.055 3.079l7 2.687 1.99.764c9.56 3.697 9.56 3.697 19.322 6.799 3.506.991 6.652 2.3 9.938 3.874 6.374 2.994 12.95 4.798 19.75 6.563l2.96.773c10.274 2.618 20.608 5.083 30.978 7.29 3.02.654 5.928 1.503 8.875 2.437 4.755 1.479 9.499 2.282 14.425 2.973 2.8.534 5.127 1.46 7.762 2.527q2.676.567 5.375 1c3.094.5 5.952 1.1 8.953 2.027 4.09 1.084 7.841 1.376 12.047 1.535q2.252.112 4.504.227l2.157.107c9.885.525 9.885.525 12.859 2.12 2.615 1.222 4.598 1.255 7.48 1.293l3.242.076q3.29.05 6.578.094c6.922.167 13.568.88 20.387 1.99 9.481 1.528 18.859 2.154 28.448 2.498 4.584.165 9.165.363 13.747.56l2.708.115c7.11.312 14.178.839 21.265 1.483 17.436 1.495 34.455.94 51.875-.437l2.343-.179c14.943-.934 14.943-.934 29.032-5.509v2l-1.621.773c-8.414 4.338-16.277 9.707-23.844 15.368a138 138 0 0 1-5.457 3.793c-3.233 2.17-6.32 4.489-9.39 6.879l-1.73 1.338A3508 3508 0 0 0 724 1315l-2.352 1.82q-2.116 1.64-4.226 3.29-2.792 2.177-5.594 4.343a510 510 0 0 0-21.402 17.59c-2.193 1.9-4.4 3.78-6.633 5.633-8.28 6.881-16.116 14.174-23.934 21.574a671 671 0 0 1-7.859 7.25c-5.4 4.93-10.735 9.926-16.058 14.938a720 720 0 0 1-10.978 10.121c-4.382 3.957-8.458 7.962-12.26 12.476-5.165 5.957-10.96 11.288-16.934 16.414-1.498 1.313-2.924 2.705-4.332 4.113C589 1437 589 1437 585.875 1439.439c-5.365 4.52-9.386 10.352-13.612 15.907-1.627 2.132-3.29 4.236-4.95 6.342-3.15 4.054-6.149 8.21-9.153 12.372-2.295 3.124-4.656 6.193-7.035 9.254-4.83 6.226-9.405 12.615-13.957 19.045-2.33 3.274-4.71 6.511-7.086 9.751L528 1515l-1.578 2.155c-4.414 6.137-8.095 12.472-11.61 19.158-2.958 5.611-5.793 10.76-9.812 15.687-1.522 2.613-2.882 5.304-4.25 8-2.754 5.327-5.6 10.499-8.812 15.563-4.15 6.603-7.574 13.468-10.977 20.475a371 371 0 0 1-2.809 5.599c-6.344 12.45-11.638 25.226-16.41 38.345a436 436 0 0 1-2.172 5.756c-3.543 9.423-6.267 19.05-8.882 28.762l-.537 1.971c-2.387 8.744-2.387 8.744-3.756 17.685-.359 3.493-.85 4.88-2.395 7.844-.396 2.03-.723 4.075-1 6.125-.9 6.299-1.853 12.609-3.508 18.762-.83 3.562-.92 7.206-1.133 10.847l-.156 2.612c-1.06 18.488-2.077 36.413 1.797 54.654l.529 2.56c2.457 11.437 6.344 21.947 11.471 32.44l.917 1.937c5.805 12.171 13.524 21.584 23.083 31.063l1.52 1.66c3.167 3.436 6.222 5.412 10.468 7.328 2.104 1.058 3.79 2.307 5.637 3.762 3.236 2.427 5.319 2.426 9.375 2.25q2.51 1.481 5 3 3.499.509 7 1l3.063 1.563c3.327 1.628 5.28 1.59 8.937 1.437l2.75.5c4.8.739 10.32 1.324 15.055-.008 2.724-.61 5.342-.496 8.12-.464 10.129-.136 20.405-3.567 30.013-6.466l2.904-.873c5.93-1.841 11.54-4.05 17.158-6.689 8.562-3.818 8.562-3.818 12.313-5.375 5.353-2.27 10.504-4.995 15.687-7.625-.198.526-.395 1.053-.6 1.595-2.128 5.967-3.244 11.755-4.025 18.03l-.378 2.92c-3.266 25.988-3.683 53.409 5.003 78.455l.867 2.695c2.255 6.69 5.236 12.431 9.133 18.305l1.672 2.613c10.929 16.136 26.563 27.677 45.094 33.633 2.203.744 4.159 1.714 6.234 2.754 1.99.388 3.994.708 6 1q2.563.498 5.125 1c8.811 1.59 17.562 2.083 26.5 2.125l2.12.014c3.753.041 3.753.041 7.255-1.139 2.122-.295 4.248-.561 6.375-.812 5.962-.813 11.304-2.218 16.953-4.25a59 59 0 0 1 6.797-1.938c4.024-.939 7.739-2.478 11.55-4.055 2.736-1.112 5.518-2.03 8.325-2.945l2.625-1.125C796 2006 796 2006 800 2006v-3l3.125-.062c4.76-.61 8.5-2.586 12.706-4.811 4.624-2.42 9.327-4.486 14.148-6.484a231 231 0 0 0 28.083-13.956l3.045-1.777c5.011-2.992 9.482-6.102 13.893-9.91a528 528 0 0 1 5-3c2.623-1.865 5.185-3.807 7.75-5.75l2.16-1.63A925 925 0 0 0 905 1944l2.762-2.129 2.8-2.184 2.567-1.988L915 1936v-2l1.797-.8c2.283-1.244 3.677-2.504 5.453-4.388 2.316-2.447 4.737-4.677 7.293-6.867 4.906-4.26 9.493-8.83 14.075-13.433q2.165-2.17 4.337-4.33c4.655-4.652 9.186-9.362 13.47-14.361 2.58-2.983 5.306-5.828 8.013-8.696 4.347-4.65 8.508-9.358 12.417-14.387a333 333 0 0 1 5.133-6.383c10.694-12.99 20.523-26.462 30.012-40.355l4.903-7.169q1.72-2.517 3.438-5.035c2.694-3.948 5.416-7.864 8.222-11.734 4.568-6.477 8.491-13.382 12.53-20.195a391 391 0 0 1 6.844-11.054c11.264-18.32 20.098-37.878 28.063-57.813l1.088-2.715c5.743-14.45 10.723-29.167 15.745-43.878 3.634-10.613 7.295-21.225 11.206-31.739a229 229 0 0 0 2.172-6.367l.648-1.94a701 701 0 0 0 1.797-5.49c1.481-3.164 2.189-3.672 5.344-4.871 1.268-2.034 1.268-2.034 2-4h2l3.613 10.84.683 2.043q.72 2.167 1.427 4.34c1.666 5.089 3.534 10.058 5.527 15.027a351 351 0 0 1 7.125 19.813c9.253 28.183 19.25 56.42 32.625 82.937l1.118 2.255c6.563 13.193 14.251 25.59 22.165 38.009a343 343 0 0 1 4.803 7.927c2.717 4.56 5.684 8.882 8.789 13.184 3.449 4.83 6.86 9.667 10.125 14.625 10.482 15.843 21.742 30.954 34.088 45.388a279 279 0 0 1 7.85 9.612c4.52 5.693 9.462 10.962 14.434 16.258a773 773 0 0 1 4.843 5.238c6.737 7.319 13.637 14.459 20.66 21.504l2.377 2.391c4.211 4.2 8.501 8.24 13.026 12.101 1.722 1.508 1.722 1.508 3.323 3.203 1.324 1.532 1.324 1.532 3.399 1.305l1 3c1.737 1.683 1.737 1.683 4 3.375.895.696 1.79 1.392 2.71 2.11L1336 1945l4.164 3.203A2722 2722 0 0 0 1353 1958l2.093 1.593c3.887 2.942 7.82 5.745 11.907 8.407l3.016 2.008c12.86 8.418 25.902 16.103 40.304 21.554 7.5 2.93 14.752 6.472 21.95 10.075 3.172 1.583 6.284 3.001 9.73 3.863 2.444.61 4.667 1.55 7 2.5q3.73 1.505 7.469 2.992c1.504.6 3.005 1.206 4.5 1.828 5.138 2.069 10.385 3.237 15.789 4.422 2.888.675 5.67 1.477 8.492 2.383 3.855 1.202 7.526 1.842 11.547 2.164 2.203.211 2.203.211 4.922.723 4.034.6 7.958.68 12.031.676l2.424-.003c5.832-.06 11.172-.735 16.826-2.185q2.653-.544 5.313-1.062l2.363-.473q2.415-.482 4.84-.922c11.95-2.612 25.275-9.531 34.484-17.543l1.513-1.302c6.592-5.718 12.256-10.965 16.487-18.698l2-1v-6l1.844-.121c2.43-.718 2.43-.718 3.5-3.477l1.156-3.465.63-1.878c10.672-32.676 14.305-74.277 1.87-107.059l2.379 1.207c5.485 2.766 10.968 5.385 16.621 7.793q2.19 1.153 4.375 2.313c18.235 9.2 41.102 16.339 61.625 15.687l3.438.5c9.348 1.312 17.549.122 26.562-2.5l2.5-.437c3.365-.758 6.344-2.186 9.5-3.563 2.125-.625 4.11-1.015 6.305-1.312 3.169-.809 5.074-2.122 7.695-4.063 2.49-1.829 4.935-3.586 7.586-5.176 20.654-12.399 33.449-40.113 39.414-62.449l.707-2.475c5.126-18.144 5.535-35.575 4.605-54.275l-.134-2.763c-.633-12.455-1.618-24.472-5.178-36.487a368 368 0 0 1-1.535-7.863c-.381-2.175-.381-2.175-1.465-4.137-.316-1.767-.598-3.54-.863-5.316-1.075-6.649-2.616-13.11-4.324-19.621l-.932-3.56c-5.432-20.38-12.208-40.712-21.881-59.503l-3.25-6.5-.899-1.79a640 640 0 0 1-4.765-9.679c-3.504-7.232-7.245-14.044-11.72-20.722-3.347-5.076-6.045-10.393-8.628-15.893-1.337-2.81-2.648-5.305-4.617-7.725-3.197-4.057-5.36-8.624-7.746-13.191-4.18-7.85-8.565-14.983-14.219-21.844-2.255-2.778-4.196-5.663-6.156-8.656-5.11-7.201-10.419-14.258-15.73-21.312q-2.788-3.708-5.57-7.42l-3.033-4.044a2836 2836 0 0 1-7.89-10.556l-1.6-2.147q-1.5-2.013-2.993-4.03c-4.31-5.777-8.687-11.481-14.246-16.116-3.152-2.643-6.03-5.466-8.938-8.375a502 502 0 0 0-3.383-3.129c-7.076-6.487-13.787-13.093-20.183-20.25-2.735-2.945-5.64-5.525-8.727-8.09-1.698-1.523-3.015-3.095-4.395-4.906-2.08-2.82-2.08-2.82-5.124-3.5L1600 1390l-.276-1.794c-.904-2.756-2.065-3.683-4.302-5.503-2.83-2.366-5.597-4.752-8.281-7.281l-1.923-1.812-1.968-1.86-4.223-3.969-2.074-1.949c-11.28-10.584-22.942-20.625-34.941-30.383a1662 1662 0 0 1-6.867-5.617c-6.72-5.51-13.46-10.887-20.547-15.922-3.83-2.816-7.457-5.865-11.09-8.93-2.418-1.909-4.855-3.422-7.508-4.98a653 653 0 0 1-6.187-4.312c-6.68-4.671-13.474-9.11-20.813-12.688v-2l1.793.621 2.395.816 2.355.81c4.943 1.516 9.913 2.058 15.047 2.507l2.217.198c25.447 2.242 49.811 2.087 75.285.186 9.782-.728 19.538-1.354 29.345-1.638 7.884-.241 15.48-1.095 23.254-2.414 5.946-.98 11.79-1.387 17.809-1.586 6.56-.221 12.363-.985 18.7-2.816 3.042-.743 5.86-.966 8.987-1.121 7.056-.381 13.961-1.398 20.938-2.5l3.344-.516 3.164-.512 2.84-.457c2.461-.563 4.303-1.416 6.527-2.578 3.292-.599 6.587-1.011 9.906-1.437 2.992-.395 2.992-.395 5.094-1.563 3.68-1.84 7.865-1.918 11.906-2.437 2.988-.39 2.988-.39 5.051-1.567 2.993-1.46 5.932-1.58 9.23-1.934 5.1-.602 9.775-1.48 14.59-3.28 2.626-.924 5.267-1.57 7.973-2.22a279 279 0 0 0 13-3.5l3.047-.902c2.51-.91 4.645-1.875 6.988-3.11 4.474-2.299 9.067-3.599 13.902-4.925 7.21-2.057 13.709-4.507 20.438-7.82 3.629-1.647 7.27-2.577 11.125-3.535 7.819-2.188 15.112-5.886 22.309-9.582 2.504-1.219 5.031-2.248 7.629-3.25 2.97-1.15 5.705-2.365 8.437-4 2.577-1.48 4.622-2.437 7.375-3.376 3.514-1.25 6.094-2.952 9.05-5.19 2.235-1.572 4.54-2.837 6.95-4.122 14.826-7.949 14.826-7.949 27.965-18.348 4.888-4.568 10.333-8.444 15.848-12.215 5.037-3.478 9.674-7.36 14.335-11.316 3.077-2.558 6.246-4.923 9.524-7.215L1966 1152v-2l2.188-.7c3.35-1.55 5.26-3.453 7.812-6.112l2.5-2.583 2.5-2.605 2.516-2.477c10.616-10.783 20.079-23.355 27.484-36.523l1.453-2.504c11.397-20.125 17.01-39.695 16.985-62.871v-2.03c-.033-9.318-.895-16.958-4.438-25.595l-.812-3.437c-1.373-4.119-3.345-6.314-6.188-9.563a268 268 0 0 1-2.93-5.098c-6.308-11.211-14.8-20.15-25.547-27.218-2.731-1.823-5.296-3.807-7.898-5.809-4.688-3.438-9.375-5.719-14.8-7.77-3.048-1.192-5.899-2.642-8.825-4.105a278 278 0 0 0-22-8l-3.09-1c-8.892-2.822-17.669-4.795-26.91-6l-1-3 2.695-.738c3.555-1.357 5.442-2.841 8.18-5.45l2.605-2.44L1921 914a538 538 0 0 1 4.188-3.625c10.055-8.783 18.495-18.968 26.812-29.375l2.363-2.95c5.186-6.667 9.152-13.366 12.637-21.05l1.336-2.883q1.275-2.772 2.5-5.566C1972 846 1972 846 1973.164 843.98c4.343-7.92 3.665-17.183 3.836-25.981l.121-3.219c.356-14.229-2.255-29.414-11.121-40.781l-1.437-3.437c-1.947-4.438-4.544-7.802-7.563-11.563l-2.11-2.707c-4.555-5.742-9.229-10.658-14.89-15.293l-1.562-1.441c-9.987-9.163-22.12-15.21-34.438-20.559l-1.85-.825c-3.086-1.362-6.027-2.52-9.338-3.175-3.812-1-3.812-1-5.527-2.402-3.293-2.303-6.812-3.113-10.66-4.16l-4.46-1.254-2.16-.602c-1.755-.51-3.49-1.085-5.22-1.672-3.467-1.133-6.928-1.73-10.515-2.347C1852 702 1852 702 1849 700a120 120 0 0 0-6.125-1.437c-3.96-.87-7.798-1.787-11.625-3.125-8.202-2.828-16.343-3.879-24.955-4.653l-2.283-.222-2.048-.184C1800 690 1800 690 1798.068 688.99c-2.503-1.2-4.393-1.307-7.162-1.405l-3.077-.118-3.329-.093-3.489-.113c-21.453-.629-42.84-.269-64.28.652-2.235.07-4.475.045-6.711-.008-2.933-.1-2.933-.1-5.062 1.01-4.337 1.59-8.727 1.977-13.298 2.521l-3.03.381q-4.783.599-9.568 1.182-6.295.772-12.59 1.563l-2.907.347c-4.763.598-9.042 1.403-13.565 3.09-3.025.56-6.053.999-9.098 1.438-2.859.554-5.208 1.48-7.902 2.562-2.22.503-4.45.957-6.687 1.375a578 578 0 0 0-17.688 3.688l-2.194.491-4.158.935q-3.235.726-6.473 1.443a3401 3401 0 0 0-21.647 4.9q-2.652.605-5.306 1.206-3.878.88-7.753 1.77l-2.359.531c-4.682 1.082-9.21 2.41-13.753 3.978-2.806.967-5.642 1.823-8.482 2.683l-6.5 2-2.234.676c-7.45 2.353-14.605 5.509-21.808 8.513a475 475 0 0 1-7.458 2.999c-4.558 1.812-9.03 3.794-13.5 5.812l-4.5 2-2.25 1-15.75 7-2.277 1.016a391 391 0 0 1-4.227 1.843c-22.549 9.756-43.868 22.114-64.129 35.95-1.9 1.212-3.834 2.22-5.867 3.191v3l-2.75-.25c-4.093.315-4.433 1.394-7.25 4.25a162 162 0 0 1-6.75 4.25l-1.824 1.102A899 899 0 0 1 1363 812l-1-2c.707-1.65 1.421-3.299 2.172-4.93 1.166-2.915 1.726-5.878 2.3-8.957.563-2.254 1.472-4.05 2.528-6.113.47-1.849.937-3.698 1.375-5.555.734-2.871 1.61-5.68 2.5-8.508 2.26-7.257 4.199-14.585 6.125-21.937l2-7.437c4.47-16.674 4.47-16.674 8-33.563l.355-1.96c1.377-7.647 2.69-15.211 3.145-22.977.302-4.957 1.306-9.23 2.742-13.965 1.136-4.641 1.58-9.334 2.023-14.085.313-3.158.724-5.98 1.766-8.986 1.463-4.57 1.36-9.098 1.448-13.867.158-4.48.804-8.44 2.024-12.761 1.531-5.991 1.924-11.52 1.885-17.681l.016-3.203c.013-3.457.005-6.914-.006-10.37q.003-3.646.01-7.293.005-7.623-.017-15.248c-.017-6.47-.007-12.94.01-19.412.012-5.018.008-10.036 0-15.054q-.004-3.576.008-7.15c.028-12.147-.23-23.76-2.724-35.675-.856-4.137-1.117-8.033-1.247-12.25-.175-5.37-.834-10.227-1.95-15.477-.806-4.27-1.09-8.57-1.426-12.899-.604-7.06-1.56-13.752-3.34-20.628-.818-3.464-1.314-6.907-1.784-10.434-.63-4.717-1.536-9.07-2.938-13.625q-.42-2.216-.812-4.437c-1.132-5.832-2.948-11.415-4.762-17.06a387 387 0 0 1-2.946-9.663l-.778-2.657a929 929 0 0 1-1.47-5.093c-1.645-5.6-3.791-10.794-6.232-16.09a781 781 0 0 1-2.5-6.062c-2.442-5.891-4.952-11.616-8.5-16.938l-2-6c-4.576-11.392-10.209-22.771-17-33l-3.437-5.5A174 174 0 0 0 1329 272l-1.754-2.281A876 876 0 0 0 1322 263l-2.437-3.125c-2.668-2.992-5.5-5.517-8.551-8.105-1.815-1.596-3.432-3.251-5.074-5.02-9.115-9.218-20.428-15.995-31.938-21.75l-2.68-1.465c-4.953-2.662-9.425-4.24-14.996-5.078-2.324-.457-2.324-.457-4.64-1.434-3.38-1.288-6.74-1.778-10.309-2.21l-2.145-.263c-5.89-.65-11.363-.361-17.23.45q-4 .32-8.004.621c-2.22.227-2.22.227-3.996 2.379-1.953.527-1.953.527-4.25.938-3.99.81-7.144 2.139-10.75 4.062l-2.75.813c-10.089 3.686-17.79 10.798-25.693 17.818a176 176 0 0 1-3.948 3.35c-5.328 4.416-9.438 9.516-13.609 15.019l-1.484 1.89c-7.225 9.335-13.802 19.311-19.282 29.762a115 115 0 0 1-3.359 5.91c-4.316 7.823-4.316 7.823-5.875 16.438h-2l-.187-2.875c-.776-5.247-3.28-9.527-5.813-14.125l-1.758-3.227c-6.545-11.738-13.737-23.074-22.316-33.441a174 174 0 0 1-3.883-4.883c-6.807-8.848-14.998-15.497-23.66-22.469-2.383-1.98-2.383-1.98-3.938-3.585-6.28-6.061-16.042-9.328-24.43-10.868C1029 218 1029 218 1026 216c-1.94-.452-1.94-.452-4.055-.633l-2.363-.254-2.457-.238-2.434-.262c-12.105-1.256-24.409-.363-35.691 4.387" fill="#fecada"/>
</svg>
